<?xml version="1.0" ?>
<svg enable-background="ew 0 0 52 52" id="Layer_1" version="1.1" viewBox="0 0 52 52" xml:space="preserve" xmlns="http://www.w3.org/2000/svg" xmlns:xlink="http://www.w3.org/1999/xlink">
    <text xmlns="http://www.w3.org/2000/svg" style="font-family: 'Impact'; font-size: 6px;font-weight: 700;white-space: pre;" x="19" y="25">4004</text>
    <g><g><g><path d="M37.3134766,42H10V14.5380859L14.3984375,10H42v26.3642578L37.3134766,42z M12,40h24.3759766L40,35.6416016V12     H15.2460938L12,15.3486328V40z"/></g></g><g><g><path d="M33,36.5H19c-1.6542969,0-3-1.3457031-3-3v-14c0-1.6542969,1.3457031-3,3-3h14c1.6542969,0,3,1.3457031,3,3v14     C36,35.1542969,34.6542969,36.5,33,36.5z M19,18.5c-0.5517578,0-1,0.4487305-1,1v14c0,0.5512695,0.4482422,1,1,1h14     c0.5517578,0,1-0.4487305,1-1v-14c0-0.5512695-0.4482422-1-1-1H19z"/></g></g><g><g><g><g><rect height="2" width="7" x="42" y="17.5"/></g></g><g><g><rect height="2" width="7" x="42" y="22.5"/></g></g><g><g><rect height="2" width="7" x="42" y="27.5"/></g></g><g><g><rect height="2" width="7" x="42" y="32.5"/></g></g></g><g><g><g><rect height="2" width="7" x="3" y="17.5"/></g></g><g><g><rect height="2" width="7" x="3" y="22.5"/></g></g><g><g><rect height="2" width="7" x="3" y="27.5"/></g></g><g><g><rect height="2" width="7" x="3" y="32.5"/></g></g></g></g><g><g><g><g><rect height="7" width="2" x="32.5" y="3"/></g></g><g><g><rect height="7" width="2" x="27.5" y="3"/></g></g><g><g><rect height="7" width="2" x="22.5" y="3"/></g></g><g><g><rect height="7" width="2" x="17.5" y="3"/></g></g></g><g><g><g><rect height="7" width="2" x="32.5" y="42"/></g></g><g><g><rect height="7" width="2" x="27.5" y="42"/></g></g><g><g><rect height="7" width="2" x="22.5" y="42"/></g></g><g><g><rect height="7" width="2" x="17.5" y="42"/></g></g></g></g></g>
</svg>
