<?xml version="1.0" ?>
<svg enable-background="new 0 0 52 52" id="Layer_1" version="1.1" viewBox="0 0 52 52" xml:space="preserve" xmlns="http://www.w3.org/2000/svg" xmlns:xlink="http://www.w3.org/1999/xlink">
    <text xmlns="http://www.w3.org/2000/svg" style="font-family: 'Impact'; font-size: 14px;font-weight: 700;white-space: pre;" x="12" y="32">4001</text>
    <g><g><g><g><path d="M50,41.0966797H2V11.3974609h48V41.0966797z M4,39.0966797h44V13.3974609H4V39.0966797z"/></g></g><g><g><path d="M45,36.1503906H7V16.34375h38V36.1503906z M9,34.1503906h34V18.34375H9V34.1503906z"/></g></g></g><g><g><g><g><rect height="5.440918" width="2" x="41" y="6.956543"/></g></g><g><g><path d="M42,7.956543c-1.6542969,0-3-1.3359375-3-2.9780273C39,3.3359375,40.3457031,2,42,2s3,1.3359375,3,2.9785156       C45,6.6206055,43.6542969,7.956543,42,7.956543z M42,4c-0.5517578,0-1,0.4389648-1,0.9785156       c0,0.5390625,0.4482422,0.9780273,1,0.9780273s1-0.4389648,1-0.9780273C43,4.4389648,42.5517578,4,42,4z"/></g></g></g><g><g><g><rect height="5.440918" width="2" x="31" y="6.956543"/></g></g><g><g><path d="M32,7.956543c-1.6542969,0-3-1.3359375-3-2.9780273C29,3.3359375,30.3457031,2,32,2s3,1.3359375,3,2.9785156       C35,6.6206055,33.6542969,7.956543,32,7.956543z M32,4c-0.5517578,0-1,0.4389648-1,0.9785156       c0,0.5390625,0.4482422,0.9780273,1,0.9780273s1-0.4389648,1-0.9780273C33,4.4389648,32.5517578,4,32,4z"/></g></g></g><g><g><g><rect height="5.440918" width="2" x="21" y="6.956543"/></g></g><g><g><path d="M22,7.956543c-1.6542969,0-3-1.3359375-3-2.9780273C19,3.3359375,20.3457031,2,22,2s3,1.3359375,3,2.9785156       C25,6.6206055,23.6542969,7.956543,22,7.956543z M22,4c-0.5517578,0-1,0.4389648-1,0.9785156       c0,0.5390625,0.4482422,0.9780273,1,0.9780273s1-0.4389648,1-0.9780273C23,4.4389648,22.5517578,4,22,4z"/></g></g></g><g><g><g><rect height="5.440918" width="2" x="11" y="6.956543"/></g></g><g><g><path d="M12,7.956543c-1.6542969,0-3-1.3359375-3-2.9780273C9,3.3359375,10.3457031,2,12,2s3,1.3359375,3,2.9785156       C15,6.6206055,13.6542969,7.956543,12,7.956543z M12,4c-0.5517578,0-1,0.4389648-1,0.9785156       c0,0.5390625,0.4482422,0.9780273,1,0.9780273s1-0.4389648,1-0.9780273C13,4.4389648,12.5517578,4,12,4z"/></g></g></g></g><g><g><g><g><rect height="4.9462891" width="2" x="41" y="40.0966797"/></g></g><g><g><path d="M42,50c-1.6542969,0-3-1.3359375-3-2.9785156s1.3457031-2.9785156,3-2.9785156s3,1.3359375,3,2.9785156       S43.6542969,50,42,50z M42,46.0429688c-0.5517578,0-1,0.4389648-1,0.9785156S41.4482422,48,42,48s1-0.4389648,1-0.9785156       S42.5517578,46.0429688,42,46.0429688z"/></g></g></g><g><g><g><rect height="4.9462891" width="2" x="31" y="40.0966797"/></g></g><g><g><path d="M32,50c-1.6542969,0-3-1.3359375-3-2.9785156s1.3457031-2.9785156,3-2.9785156s3,1.3359375,3,2.9785156       S33.6542969,50,32,50z M32,46.0429688c-0.5517578,0-1,0.4389648-1,0.9785156S31.4482422,48,32,48s1-0.4389648,1-0.9785156       S32.5517578,46.0429688,32,46.0429688z"/></g></g></g><g><g><g><rect height="4.9462891" width="2" x="21" y="40.0966797"/></g></g><g><g><path d="M22,50c-1.6542969,0-3-1.3359375-3-2.9785156s1.3457031-2.9785156,3-2.9785156s3,1.3359375,3,2.9785156       S23.6542969,50,22,50z M22,46.0429688c-0.5517578,0-1,0.4389648-1,0.9785156S21.4482422,48,22,48s1-0.4389648,1-0.9785156       S22.5517578,46.0429688,22,46.0429688z"/></g></g></g><g><g><g><rect height="4.9462891" width="2" x="11" y="40.0966797"/></g></g><g><g><path d="M12,50c-1.6542969,0-3-1.3359375-3-2.9785156s1.3457031-2.9785156,3-2.9785156s3,1.3359375,3,2.9785156       S13.6542969,50,12,50z M12,46.0429688c-0.5517578,0-1,0.4389648-1,0.9785156S11.4482422,48,12,48s1-0.4389648,1-0.9785156       S12.5517578,46.0429688,12,46.0429688z"/></g></g></g></g></g>
</svg>
